<svg width="569" height="359" fill="none" xmlns="http://www.w3.org/2000/svg"><g filter="url(#filter0_d_5_164)"><path d="M261.189 292.039c-16.416.047-32.833.424-49.221 2.165-6.179.657-12.229 2.101-18.422 2.684-12.371 1.164-24.52 3.335-36.934 4.336-9.998.806-20.037 1.282-30.005 2.305-9.346.96-19.692.739-28.966-.846-6.865-1.173-13.762-1.834-20.512-3.719-7.551-2.108-15.755-3.615-23.623-3.561-11.218.078-22.144.087-32.88 3.809-3.77 1.306-8.383 3.454-11.245 6.196-6.552 6.277-7.438 21.94-.896 28.45 11.017 10.957 34.534 15.256 49.978 15.459 16.924.222 33.365-.978 50.313-1.684 15.749-.656 31.459-1.589 47.234-1.556 32.219.067 64.441 0 96.602-2.056 30.216-1.933 60.508-1.269 90.79-1.269 31.053 0 61.895.233 92.724 4.176 13.433 1.718 27.117 2.32 40.617 3.523 12.091 1.079 23.709-.021 35.752-1.017 10.111-.836 20.157-3.318 29.343-7.512 7.271-3.32 20.235-13.636 22.465-21.561 6.254-22.219-88.106-21.685-102.593-21.635-16.207.056-32.542.565-48.736-.025-6.812-.249-13.524-1.521-20.172-2.914-6.623-1.39-13.295-1.036-20.01-1.62-28.005-2.433-56.072-2.077-84.167-2.077-9.141 0-18.288-.077-27.436-.051z" fill="#F1F2F2"/><path d="M48.98 202.717l-2.04 45.244 5.984 76.931 8.955.608 10.88-69.871 15.053-59.125-38.832 6.213z" fill="#9EA6AD"/><path d="M61.56 329.104l-10.03 3.969-4.498-4.955 5.186-4.298 9.685.658-.344 4.626z" fill="#1A3151"/><path d="M112.376 186.707l1.965 34.199-5.831 101.688-8.968.428-13.439-66.693L74.25 183.19l38.126 3.517z" fill="#9EA6AD"/><path d="M99.783 326.632l9.939 4.17 4.606-4.864-5.09-4.401-9.697.463.242 4.632z" fill="#1A3151"/><path d="M46.634 88.819l27.088-7.287s15.626-.916 32.211 32.225c9.228 18.438 16.401 48.679 20.95 71.883-.063 3.426-1.272 18.58-17.716 18.702-28.238.211-43.62-1.658-55.214 2.397-9.822 3.767-11.337-9.786-12.03-20.204l-1.55-32.331 6.261-65.386z" fill="#145566"/><path d="M46.147 55.145c6.695-2.59 13.619-5.06 20.813-4.87 1.576.042 3.303.285 4.353 1.409.406.435.675.97.93 1.5 2.863 5.955 6.73 14.843 3.45 21.287-.626 1.229-1.572 2.277-2.63 3.175a15.661 15.661 0 01-4.802 2.76 26.38 26.38 0 002.36 4.28c-1.185 2.55-8.563 4.026-10.325 2.05l-1.243-5.67a15.458 15.458 0 01-2.825-.87c-3.528-1.483-6.157-4.176-7.972-7.37-1.977-3.478-4.46-6.687-6.335-10.254-.683-1.3-1.307-2.808-.772-4.17.57-1.45 2.224-2.179 3.725-2.763l1.273-.494z" fill="#B4572A"/><path d="M69.924 54.968c-3.81-1.556-9.128-1.631-12.32-.885-9.651 2.257-12.015 9.692-11.016 18.36-3.27-2.834-9.051-6.128-10.102-10.285-.86-3.402-1.193-8.177.3-11.477 1.395-3.088 5.954-5.397 8.541-7.474l7.315-5.873c.507-.407 1.029-.823 1.653-1.034.739-.249 1.548-.188 2.328-.125l20.039 1.635c1.283.105 2.762.322 3.416 1.382.397.645.372 1.441.335 2.189-.165 3.292-.984 6.761-.76 10.033-.06 1.931.471 11.695-3.186 11.15-1.298-1.424-1.797-3.356-2.89-4.929-.808-1.162-2.106-2.036-3.653-2.667z" fill="#1A3151"/><path d="M73.722 81.532l10.723 1.315 43.847 31.253 4.394 11.925-12.826 30.967-6.632-9.518 3.859-21.975-13.397-6.112-22.041-31.73-7.927-6.125z" fill="#145566"/><path d="M351.891 314.816l-230.537 19.339-26.807-291.38 230.536-19.34 26.808 291.381z" fill="#3ABABA"/><path d="M339.112 303.273l-207.283 17.39L107.027 51.08 314.31 33.69l24.802 269.583z" fill="#FCFCFC"/><path d="M165.657 46.162l-.131-1.425 90.024-7.551.131 1.423-90.024 7.553z" fill="#33A3A3"/><path d="M166.262 52.742l-.605-6.58 90.024-7.553.605 6.58-90.024 7.553z" fill="#DDD"/><path d="M220.202 16.106l-23.718 1.989c-2.425.204-4.581-1.508-4.793-3.805-.211-2.296 1.6-4.342 4.024-4.545l23.719-1.99c2.424-.203 4.581 1.509 4.791 3.806.212 2.296-1.599 4.341-4.023 4.545zm14.668-1.584l-1.396.117-.082-.892C232.618 5.344 223.73-.775 213.54.08l-13.423 1.125c-10.191.855-17.825 8.361-17.052 16.765l.082.891-1.397.117c-10.19.856-17.825 8.36-17.052 16.764l1.564 16.999 90.024-7.552-1.564-17c-.773-8.403-9.661-14.522-19.852-13.667z" fill="#E8EBED"/><path d="M145.394 180.701c-.806 0-1.518-.605-1.589-1.374l-2.652-28.824c-.075-.813.59-1.562 1.447-1.634l30.434-2.553c.045-.004.089-.006.134-.006.805 0 1.518.605 1.589 1.374l2.651 28.825c.041.444-.1.796-.335 1.058l-.027.032-.05.052c-.231.262-.57.453-1.034.492l-30.434 2.552c-.045.004-.09.006-.134.006zm26.331-31.25l-27.263 2.287 2.375 25.822 27.263-2.287-2.375-25.822zm-21.427 84.545c-.806 0-1.519-.604-1.59-1.374l-2.651-28.824c-.076-.813.589-1.562 1.446-1.634 10.145-.851 20.289-1.703 30.434-2.553.045-.004.09-.006.134-.006.806 0 1.518.605 1.589 1.374l2.651 28.824c.042.445-.099.797-.336 1.059l-.026.032-.049.052c-.232.262-.571.453-1.036.492l-30.433 2.553a1.478 1.478 0 01-.133.005zm26.329-31.249l-27.262 2.286c.791 8.608 1.583 17.215 2.376 25.822l27.262-2.287c-.791-8.608-1.584-17.214-2.376-25.821zM155.2 287.291c-.805 0-1.518-.606-1.588-1.374l-2.653-28.824c-.074-.813.591-1.562 1.447-1.634l30.433-2.554c.046-.004.09-.005.134-.005.806 0 1.519.604 1.589 1.374l2.652 28.824c.041.445-.099.797-.335 1.059l-.027.032-.049.052c-.231.262-.57.453-1.036.491l-30.432 2.553a1.558 1.558 0 01-.135.006zm26.331-31.25l-27.263 2.287c.792 8.607 1.583 17.215 2.376 25.822l27.262-2.287-2.375-25.822z" fill="#C5CACC"/><path d="M153.854 158.915l6.791-2.795 4.495 6.299 31.32-25.623 3.954.41-36.083 33.441-10.477-11.732zm2.491 54.858l6.792-2.794 4.495 6.299 31.32-25.624 3.954.411-36.083 33.44-10.478-11.732zM160 264.119l6.792-2.795 4.495 6.299L202.607 242l3.954.41-36.083 33.44L160 264.119z" fill="#3ABABA"/><path d="M204.792 277.388l-1.326-14.412 107.361-9.008 1.326 14.413-107.361 9.007zm-5.193-56.448l-1.326-14.412 107.361-9.006 1.326 14.412-107.361 9.006zm-5.194-56.447l-1.326-14.413 107.362-9.006 1.326 14.412-107.362 9.007z" fill="#D6DADB"/><path d="M58.093 105.108l-3.816 29.068 49.38 31.605-2.707 8.433-63.055-23.045-5.616-19.653 14.355-42.697 11.459 16.289z" fill="#145566"/><path d="M101.529 172.409l3.905 3.216 9.828.604-.093-5.205-7.026-2.428-.721-2.718-3.765-.097-2.128 6.628z" fill="#AA6755"/><path d="M530.356 318.074l.485 4.569-9.077 5.498-5.267-4.104 4.296-5.033 9.076-5.498.487 4.568z" fill="#14263A"/><path d="M530.707 178.702l1.476 13.876-12.967 62.006 11.484 61.97-9.293 2.733-30.045-73.68-1.648-22.525 4.07-46.661 36.923 2.281z" fill="#145566"/><path d="M460.284 183.425l-.297 58.619 12.09 75.5 8.89-.058 5.124-69.769 11.674-69.811-37.481 5.519z" fill="#145566"/><path d="M480.94 321.068l-9.58 4.654-4.838-4.561 4.773-4.623 9.613-.062.032 4.592z" fill="#14263A"/><path d="M452.793 174.823c6.413-18.98 7.097-38.91 8.962-58.681.552-5.834 1.14-11.796 3.681-17.126 2.919-6.12 7.743-9.351 13.364-11.116 7.154-2.246 15.596-2.117 23.035-2.55 7.057-.212 13.302 25.137 20.5 37.426 4.413 7.531 8.959 14.191 11.934 22.406 2.857 7.884 5.599 15.907 7.261 24.11 2.509 12.385 8.926 21.033 2.798 25.246-.562.177-1.103.353-1.617.529-10.052 3.44-20.453 5.987-31.045 7.323-9.396 1.184-18.938 1.401-28.373.512-12.915-1.216-25.427-2.959-36.812-9.395l6.312-18.684z" fill="#D1E7F5"/><path d="M408.513 136.427l44.256-12.635 15.023-28.616 8.281 14.635-9.551 26.616-48.439 9.161-9.57-9.161z" fill="#D1E7F5"/><path d="M360.029 90.022l31.464-30.01 116.044 111.07-31.464 30.01-116.044-111.07z" fill="#EE9B20"/><path d="M391.493 60.012l-43.779-11.84 12.315 41.85 31.464-30.01z" fill="#EDEEEF"/><path d="M364.14 52.615l-16.426-4.443 4.62 15.702 11.806-11.26z" fill="#145566"/><path d="M495.921 212.095l23.36-22.281c2.238-2.134 2.241-5.598.008-7.736l-11.752-10.996-31.464 30.01 11.751 10.996c2.234 2.138 5.859 2.142 8.097.007z" fill="#FD0944"/><path d="M476.073 201.092l31.464-30.01-5.874-5.622-31.708 29.776 6.118 5.856z" fill="#EDEDEF"/><path d="M505.288 66.483c-4.021-11.598-21.735-15.637-25.853-2.158-1.237 4.05-1.982 8.348-1.141 12.49.841 4.142 3.491 8.117 7.534 9.815l.07.027-.474 3.225c-.034.23-.063.486.073.68.155.22.462.278.737.317l4.029.575c.666.094 1.36.187 2.001-.009 1.402-.429 1.986-2.036 2.048-3.442.014-.336.011-.676.006-1.017 7.949-2.602 13.598-12.922 10.97-20.504z" fill="#EAC1A4"/><path d="M483.706 46.68c-3.243-.462-6.005 2.544-8.998 4.121-2.49 1.313-5.313 1.661-7.893 2.75-2.58 1.087-5.117 3.358-5.171 6.2-2.615-1.3-5.448-2.633-8.378-2.093-2.931.54-5.651 3.882-4.483 6.637 1.045 2.467 4.414 3.048 5.535 5.477 1.773 3.842-3.02 9.808.251 12.356.786.613 1.856.76 2.629 1.391.96.783 1.268 2.129 1.695 3.324 1.937 5.422 7.656 8.963 13.306 8.239 3.512-1.573 6.313-4.821 7.568-8.54 1.513-4.482-.997-6.047-1.421-10.255-.463-4.599 1.068-9.469 4.098-13.04 1.972-2.324 4.794-4.327 7.776-4.599 1.212-.11.83.856 2.193-.04.586-.385 1.385-1.84 1.55-2.537-3.262-2.507-5.989-8.785-10.257-9.392z" fill="#1A3151"/><path d="M518.787 52.642c1.673.445 3.49.38 5.084 1.048 2.394 1.003 2.249 3.377 2.927 5.44.75 2.283 1.841 5.349 3.417 7.125 1.136 1.28 2.727 2.01 4.11 2.997 1.384.988 2.656 2.446 2.627 4.226-.028 1.686-1.215 3.2-1.389 4.886-.211 2.511.244 3.797-.567 6.364-.418 1.324-.886 2.727-1.926 3.63-1.372 1.19-3.325 1.168-5.04.894-1.715-.274-3.488-.729-5.179-.185-3.668 1.179-2.983 4.723-3.96 7.694-1.485 4.52-6.972 7.159-11.168 5.551-3.559-1.363-5.619-5.311-5.458-9.208.081-1.951.893-3.77.953-5.723.057-1.883-1.055-4.492.732-5.987.436-.364.993-.556 1.384-.97.317-.336.492-.786.602-1.235.38-1.557.022-3.255-.939-4.446-.69-.857-1.679-1.483-2.103-2.516-.485-1.184-.101-2.57-.019-3.878.199-3.163-1.612-6.265-4.37-7.487-1.817-.805-3.455-1.28-5.043-2.504-.242-.186-3.857-3.238-3.95-2.579.163-1.148.864-2.151 1.574-3.073 1.168-1.514 2.465-2.988 4.11-3.895 5.32-2.932 5.578 3.883 9.848 2.986 1.029-.216 1.805-1.119 2.732-1.657 1.752-1.017 3.903-.653 5.693.109 1.792.762 3.433 1.892 5.318 2.393z" fill="#1A3151"/><path d="M407.093 142.379l5.243-1.07 6.573 4.81-4.965 5.535-4.967-3.879-1.884-5.396zm57.748 16.045l-3.521 3.598-9.704 1.607-.492-5.184 6.713-3.134.412-2.776 3.733-.481 2.859 6.37z" fill="#EAC1A4"/><path d="M455.732 151.861l44.256-12.635 15.024-28.617 8.28 14.636-9.551 26.616-48.439 9.16-9.57-9.16z" fill="#D1E7F5"/><path d="M162.496 79.94l-30.616 2.79.614 6.15 11.304-1.029 2.827 28.332 8.008-.73-2.827-28.332 11.304-1.03-.614-6.15zm28.416 23.607c-1.503 2.189-3.776 3.422-6.817 3.7-3.042.276-5.516-.516-7.424-2.378-1.908-1.863-3.053-4.715-3.437-8.558-.38-3.809.183-6.792 1.69-8.95 1.506-2.157 3.78-3.374 6.822-3.651 3.041-.277 5.514.507 7.421 2.353 1.906 1.847 3.049 4.675 3.43 8.485.38 3.81-.182 6.809-1.685 8.999zm6.48-18.868c-1.683-2.518-3.915-4.375-6.694-5.573-2.779-1.196-5.96-1.631-9.542-1.305-3.582.326-6.627 1.33-9.137 3.007-2.51 1.679-4.35 3.908-5.521 6.685-1.173 2.78-1.579 5.96-1.221 9.543.357 3.585 1.387 6.651 3.091 9.2 1.704 2.549 3.953 4.421 6.749 5.616 2.797 1.195 5.985 1.629 9.567 1.303 3.581-.326 6.62-1.328 9.112-3.005 2.493-1.676 4.315-3.919 5.466-6.729 1.152-2.808 1.549-6.005 1.192-9.59-.358-3.583-1.379-6.634-3.062-9.153zm38.037 17.255l-5.525.504-2.224-22.278 5.526-.503c7.704-.702 11.925 2.644 12.663 10.037.744 7.458-2.736 11.539-10.44 12.24zm15.169-22.005c-1.762-2.446-4.129-4.218-7.104-5.316-2.973-1.097-6.437-1.465-10.39-1.105l-13.939 1.27 3.441 34.482 13.939-1.269c3.987-.364 7.332-1.361 10.033-2.992 2.702-1.63 4.667-3.805 5.896-6.523 1.229-2.719 1.663-5.886 1.302-9.502-.358-3.584-1.417-6.598-3.178-9.045zm33.933 15.088c-1.503 2.19-3.776 3.424-6.817 3.7-3.041.277-5.516-.516-7.423-2.377-1.908-1.863-3.054-4.715-3.437-8.558-.381-3.809.183-6.793 1.689-8.95 1.506-2.157 3.78-3.374 6.822-3.652 3.041-.277 5.516.508 7.422 2.354 1.905 1.847 3.049 4.675 3.429 8.484.38 3.81-.182 6.81-1.685 9zm9.542-9.715c-.358-3.584-1.379-6.634-3.062-9.152-1.683-2.517-3.915-4.376-6.694-5.573-2.779-1.196-5.96-1.632-9.542-1.305-3.581.326-6.627 1.33-9.137 3.007-2.509 1.678-4.349 3.907-5.521 6.685-1.172 2.778-1.579 5.96-1.221 9.543.357 3.585 1.387 6.651 3.091 9.2 1.704 2.549 3.953 4.421 6.749 5.616 2.797 1.195 5.985 1.629 9.568 1.303 3.581-.327 6.619-1.328 9.111-3.006 2.493-1.675 4.315-3.918 5.467-6.728 1.151-2.81 1.549-6.006 1.191-9.59z" fill="#1A3151"/></g><defs><filter id="filter0_d_5_164" x="0" y="0" width="568.6" height="358.896" filterUnits="userSpaceOnUse" color-interpolation-filters="sRGB"><feFlood flood-opacity="0" result="BackgroundImageFix"/><feColorMatrix in="SourceAlpha" values="0 0 0 0 0 0 0 0 0 0 0 0 0 0 0 0 0 0 127 0" result="hardAlpha"/><feOffset dy="4"/><feGaussianBlur stdDeviation="2"/><feComposite in2="hardAlpha" operator="out"/><feColorMatrix values="0 0 0 0 0 0 0 0 0 0 0 0 0 0 0 0 0 0 0.25 0"/><feBlend in2="BackgroundImageFix" result="effect1_dropShadow_5_164"/><feBlend in="SourceGraphic" in2="effect1_dropShadow_5_164" result="shape"/></filter></defs></svg>