<svg width="32" height="32" fill="none" xmlns="http://www.w3.org/2000/svg"><path d="M23.228 0H8.772C3.935 0 0 3.935 0 8.772v14.456C0 28.065 3.935 32 8.772 32h14.456C28.065 32 32 28.065 32 23.228V8.772C32 3.935 28.065 0 23.228 0zm6.882 23.228a6.89 6.89 0 01-6.882 6.882H8.772a6.89 6.89 0 01-6.882-6.882V8.772A6.89 6.89 0 018.772 1.89h14.456a6.89 6.89 0 016.882 6.882v14.456z" fill="#FFAD0F"/><path d="M16 7.223c-4.84 0-8.777 3.938-8.777 8.777 0 4.84 3.937 8.777 8.777 8.777S24.777 20.84 24.777 16 20.84 7.223 16 7.223zm0 15.664A6.895 6.895 0 019.113 16 6.895 6.895 0 0116 9.113 6.895 6.895 0 0122.887 16 6.895 6.895 0 0116 22.887zm9.302-18.856a2.67 2.67 0 00-2.667 2.667 2.67 2.67 0 002.667 2.667 2.67 2.67 0 002.667-2.667 2.67 2.67 0 00-2.667-2.667zm0 3.444a.778.778 0 11.002-1.555.778.778 0 01-.002 1.555z" fill="#FFAD0F"/></svg>