<svg width="256" height="50" fill="none" xmlns="http://www.w3.org/2000/svg"><path d="M3.184 5.231c-3.8 6.674-3.958 8.342-1.742 18.074 1.267 6.396 2.375 7.23 8.709 7.23 5.225 0 7.125 1.113 7.125 4.171 0 3.059-1.9 4.171-7.917 4.171-6.808 0-7.917.834-7.917 5.562 0 5.005 1.109 5.561 9.975 5.561 11.4 0 13.776-2.78 13.776-15.85 0-10.288-3.326-14.737-10.926-14.737-3.325 0-4.908-1.39-4.908-4.171 0-3.06 1.9-4.172 7.283-4.172 6.017 0 7.125-.834 6.65-5.005-.791-7.508-15.833-8.342-20.108-.834z" fill="#FFAD0F"/><path d="M47.968 11.017c-2.375 4.171-.792 9.732 3.642 12.235 2.691 1.668 4.75 4.727 4.75 6.952 0 4.727-4.909 5.005-7.759.278-1.741-2.78-2.058-2.503-1.425.834 1.109 6.118 10.134 6.952 11.4 1.112 1.267-5.84-1.583-12.235-5.541-12.235-1.742 0-3.009-1.946-3.009-4.449 0-3.615 1.109-4.17 4.75-3.059 2.692 1.113 4.75.557 4.75-.834 0-3.059-9.975-3.893-11.558-.834zm59.851 11.957c0 7.786.633 13.903 1.583 13.903s1.425-5.84 1.108-13.903c-.791-18.074-2.691-18.074-2.691 0zm24.542-11.401c0 1.39 1.583 1.947 3.325 1.112 3.166-1.668 3.325-.834 2.85 11.401-.475 7.508 0 12.791.95 12.791s1.425-5.283.95-12.79c-.475-12.236-.317-13.07 2.85-11.402 1.741.835 3.325.278 3.325-1.112 0-1.39-3.167-2.502-7.125-2.502-3.959 0-7.125 1.112-7.125 2.502zM241 11.503c0 1.39 1.583 1.946 3.325 1.112 3.167-1.668 3.325-.834 2.85 11.4-.475 7.508 0 12.792.95 12.792s1.425-5.284.95-12.791c-.475-12.235-.317-13.07 2.85-11.401 1.742.834 3.325.278 3.325-1.112 0-1.39-3.167-2.503-7.125-2.503S241 10.112 241 11.503zm-68.264 11.471c0 13.625 0 13.903 4.908 13.903 6.334 0 8.867-5.561 8.234-17.24-.475-8.62-.95-9.176-6.809-10.01l-6.333-.835v14.182zm11.558-2.503c.475 8.064-3.166 15.016-6.808 12.513-1.425-.834-2.375-5.005-2.375-11.4 0-9.455.317-10.01 4.433-9.177 3.325.556 4.434 2.503 4.75 8.064zm26.442 2.503v13.903h5.859c4.591 0 6.017-1.112 6.017-4.727s-.475-3.893-1.901-1.39c-1.108 1.946-3.325 3.337-4.908 3.337-2.533 0-3.008-1.669-2.375-12.513.317-7.23-.158-12.513-1.108-12.513-.792 0-1.584 6.395-1.584 13.903zM62.377 25.755c-.476 8.62 0 11.122 1.9 11.122s2.375-2.224 1.9-9.732c-.95-13.903-3.009-14.46-3.8-1.39zm9.816-8.621c-2.85 1.947-3.641 19.743-.95 19.743 1.267 0 1.742-3.059 1.267-8.342-.633-6.951-.158-8.342 2.692-8.342 2.691 0 3.325 1.669 3.325 8.342 0 4.45.633 8.342 1.266 8.342.792 0 1.109-3.893.634-8.342-.634-6.951-.159-8.342 2.691-8.342 2.692 0 3.326 1.669 3.326 8.342 0 4.45.633 8.342 1.266 8.342.792 0 .95-4.727.475-10.288-.95-9.733-1.267-10.289-7.283-10.845-3.484-.278-7.442.278-8.709 1.39zm23.434-.556c-3.325 1.39-4.908 28.641-1.425 28.641 1.108 0 1.742-1.668 1.267-3.893-.634-2.78.316-4.449 3.325-5.005 3.325-.556 4.433-2.502 4.75-8.898.475-6.952-1.742-13.347-4.434-12.513-.475.278-1.9.834-3.483 1.668zm6.65 10.845c0 5.84-3.325 7.508-6.017 3.059-2.058-3.615-2.058-5.284-.317-8.898 1.584-3.337 2.534-3.615 4.117-1.113 1.267 1.669 2.217 4.727 2.217 6.952zm12.667-8.898c-.95 2.224-1.584 6.952-1.267 10.566.317 5.006 1.583 6.396 5.225 6.952 2.85.278 3.484-.278 1.584-1.112-5.384-2.503-6.492-6.396-2.059-6.396 5.067 0 6.967-4.449 4.434-9.732-2.534-5.283-5.384-5.283-7.917-.278zm6.333 4.449c0 1.39-1.108 2.78-2.375 2.78s-2.375-1.39-2.375-2.78c0-1.669 1.108-2.78 2.375-2.78s2.375 1.111 2.375 2.78zm27.867-3.893c-3.008 5.005-3.008 5.561-.95 12.513 1.9 5.84 6.333 6.952 9.183 1.947 2.851-5.006 2.217-12.792-1.108-16.128-3.958-3.615-4.275-3.615-7.125 1.668zm6.65 8.342c-.633 6.952-5.067 6.674-5.7 0-.633-5.84 2.85-11.123 4.908-7.508.792 1.39 1.109 4.727.792 7.508zm34.517-8.62c-3.483 6.117-.95 16.406 4.275 17.518 3.325.834 4.434-.556 5.225-6.117 1.742-12.791-4.433-20.021-9.5-11.401zm7.6 10.845c-.633 2.502-2.216 4.449-3.641 3.893-3.167-1.113-4.275-10.567-1.425-13.626 2.85-3.059 6.333 3.615 5.066 9.733zm27.709-14.46c-.95 5.84-.158 21.69.95 21.69.95 0 1.425-4.728 1.108-11.123-.475-9.177-1.425-13.904-2.058-10.567zm6.65 1.946c-1.9 2.225-1.9 3.337-.317 6.952 1.267 2.503 3.167 4.45 4.275 4.45 1.267 0 2.217 1.39 2.217 3.058 0 1.947-1.583 2.503-3.958 1.39-2.375-1.112-3.959-.556-3.959 1.113 0 4.17 9.817 2.224 10.767-1.947.317-1.946-1.267-5.005-3.483-6.673-4.592-3.893-3.8-9.177.95-6.396 2.216 1.112 2.85.556 2.216-1.39-1.425-3.615-5.7-3.893-8.708-.556zm-68.559 7.786c.95.556 2.85.556 3.958 0 .95-.834.159-1.39-2.058-1.39-2.217 0-3.008.556-1.9 1.39z" fill="#EDEDEF"/></svg>