<svg width="1018" height="588" fill="none" xmlns="http://www.w3.org/2000/svg"><path d="M1018 555.652H0v.424h1018v-.424zm-535.468-75.694H89.401c-3.08-.004-6.032-1.027-8.208-2.844-2.175-1.817-3.397-4.279-3.397-6.846V9.606c.026-2.553 1.26-4.993 3.433-6.792C83.402 1.016 86.34.004 89.401 0h393.131c3.083 0 6.04 1.021 8.221 2.838 2.18 1.818 3.405 4.283 3.405 6.853v460.577c0 2.57-1.225 5.035-3.405 6.852-2.181 1.818-5.138 2.838-8.221 2.838zM89.401.339c-2.945.005-5.767.983-7.848 2.72-2.08 1.738-3.248 4.092-3.248 6.547v460.662c0 2.454 1.168 4.809 3.248 6.546s4.903 2.716 7.848 2.72h393.131c2.947-.004 5.771-.982 7.855-2.719 2.083-1.737 3.256-4.091 3.262-6.547V9.606c-.006-2.456-1.179-4.81-3.262-6.548-2.084-1.736-4.908-2.714-7.855-2.719H89.401zm833.538 479.619H529.788c-3.082-.004-6.036-1.026-8.215-2.843-2.179-1.816-3.406-4.279-3.411-6.847V9.606c.032-2.554 1.271-4.995 3.447-6.793S526.723.004 529.788 0h393.151c3.059.009 5.99 1.022 8.159 2.82 2.168 1.798 3.399 4.236 3.426 6.786v460.662c0 2.564-1.219 5.024-3.391 6.84-2.171 1.816-5.118 2.841-8.194 2.85zM529.788.339c-2.947.005-5.771.983-7.855 2.72-2.084 1.736-3.257 4.09-3.262 6.547v460.662c.005 2.456 1.178 4.81 3.262 6.547s4.908 2.715 7.855 2.719h393.151c2.947-.004 5.771-.982 7.855-2.719 2.083-1.737 3.256-4.091 3.262-6.547V9.606c-.006-2.456-1.179-4.81-3.262-6.548-2.084-1.736-4.908-2.714-7.855-2.719H529.788zm-372.446 571.47h-52.936v.424h52.936v-.424zm229.864-4.599h-91.681v.424h91.681v-.424zm-104.059 20.366H159.378V588h123.769v-.424zm630.447-2.851h-39.152v.424h39.152v-.424zm-57.293 0H743.73v.424h112.571v-.424zm-181.326-7.163H523.354v.425h151.621v-.425z" fill="#EBEBEB"/><path d="M388.53 272.293L362.774 555.72h248.392l25.756-283.427H388.53zm156.181 200.266c-1.201 11.313-7.39 21.854-17.369 29.586-9.98 7.733-23.043 12.109-36.666 12.283-6.45.083-12.849-.968-18.779-3.085s-11.258-5.252-15.637-9.201c-4.378-3.949-7.709-8.624-9.774-13.718-2.065-5.095-2.818-10.495-2.21-15.848l9.06-99.624c1.201-11.31 7.386-21.849 17.362-29.581 9.975-7.732 23.033-12.11 36.653-12.288 6.454-.086 12.858.964 18.793 3.08 5.935 2.117 11.268 5.254 15.651 9.205 4.382 3.951 7.716 8.628 9.783 13.725 2.067 5.098 2.822 10.502 2.214 15.859l-9.081 99.607z" fill="#E6E6E6"/><path d="M670.164 555.601H308L310.097 537H672.24l-2.076 18.601z" fill="#E6E6E6"/><path d="M829.1 450.445h32.128c.43 0 .856-.073 1.252-.214a3.234 3.234 0 001.047-.61 2.61 2.61 0 00.671-.906c.148-.337.211-.696.186-1.054l-.122-1.901c-.052-.743-.44-1.442-1.086-1.955-.647-.514-1.503-.804-2.396-.811h-32.128a3.719 3.719 0 00-1.253.207c-.396.14-.754.346-1.051.605a2.612 2.612 0 00-.679.902c-.15.336-.215.694-.193 1.052l.122 1.901c.052.748.442 1.451 1.092 1.968.65.517 1.512.808 2.41.816zm-53.608 0h32.067c.431.003.859-.068 1.255-.209a3.214 3.214 0 001.051-.61c.296-.261.524-.57.671-.908.146-.339.207-.698.179-1.057l-.122-1.901c-.052-.743-.44-1.442-1.086-1.955-.647-.514-1.503-.804-2.396-.811h-32.067a3.723 3.723 0 00-1.253.207c-.396.14-.754.346-1.051.605a2.597 2.597 0 00-.678.902c-.15.336-.216.694-.194 1.052l.122 1.901c.056.746.448 1.447 1.097 1.963.65.516 1.508.809 2.405.821z" fill="#E0E0E0"/><path d="M886.128 448.34H137.634c-4.207-.037-8.241-1.403-11.286-3.822-3.046-2.419-4.877-5.711-5.125-9.212L98.685 60.538a10.397 10.397 0 01.856-4.952c.691-1.585 1.767-3.033 3.16-4.255 1.393-1.221 3.074-2.19 4.937-2.846a17.276 17.276 0 015.889-.965h748.495c4.205.033 8.238 1.395 11.285 3.812 3.046 2.416 4.878 5.706 5.125 9.206l22.539 374.768a10.41 10.41 0 01-.857 4.955c-.69 1.585-1.766 3.034-3.159 4.257-1.392 1.223-3.073 2.194-4.935 2.851a17.305 17.305 0 01-5.892.971z" fill="#E0E0E0"/><path d="M895.29 448.34H146.816c-4.222-.023-8.275-1.382-11.34-3.802-3.065-2.42-4.914-5.719-5.172-9.232L107.908 60.538a10.4 10.4 0 01.853-4.944c.689-1.582 1.761-3.029 3.149-4.25 1.389-1.221 3.065-2.19 4.923-2.849a17.274 17.274 0 015.877-.974h748.474c4.22.019 8.273 1.374 11.339 3.791 3.066 2.417 4.915 5.715 5.173 9.226l22.396 374.768a10.414 10.414 0 01-.853 4.947c-.688 1.582-1.76 3.03-3.148 4.253-1.389 1.222-3.064 2.194-4.922 2.853-1.858.66-3.859.994-5.879.981z" fill="#E6E6E6"/><path d="M151.193 422.187L130.304 73.674a6.539 6.539 0 01.545-3.102c.434-.991 1.108-1.898 1.981-2.664a9.46 9.46 0 013.09-1.785 10.873 10.873 0 013.689-.612h716.916c2.637.018 5.167.871 7.076 2.387 1.91 1.517 3.056 3.581 3.206 5.776l20.889 348.513a6.528 6.528 0 01-.536 3.1 7.631 7.631 0 01-1.976 2.665 9.429 9.429 0 01-3.087 1.786 10.827 10.827 0 01-3.685.612H161.475c-2.635-.022-5.163-.877-7.071-2.392-1.909-1.515-3.056-3.578-3.211-5.771z" fill="#F5F5F5"/><path d="M174.404 83.33a5.77 5.77 0 01-.461 2.734 6.713 6.713 0 01-1.729 2.355 8.323 8.323 0 01-2.71 1.586 9.564 9.564 0 01-3.244.556c-2.333-.023-4.569-.78-6.257-2.122-1.689-1.342-2.705-3.167-2.844-5.108a5.753 5.753 0 01.467-2.729 6.72 6.72 0 011.73-2.348 8.326 8.326 0 012.708-1.582 9.561 9.561 0 013.239-.554c2.332.014 4.571.767 6.261 2.107 1.69 1.34 2.705 3.165 2.84 5.106z" fill="#F90909"/><path d="M213.637 83.33a5.746 5.746 0 01-.461 2.734 6.71 6.71 0 01-1.728 2.355 8.317 8.317 0 01-2.711 1.586 9.555 9.555 0 01-3.244.556c-2.332-.023-4.568-.78-6.257-2.122-1.688-1.342-2.705-3.167-2.843-5.108a5.753 5.753 0 01.467-2.729 6.72 6.72 0 011.73-2.348 8.316 8.316 0 012.708-1.582 9.561 9.561 0 013.239-.554c2.332.014 4.57.767 6.26 2.107 1.691 1.34 2.706 3.165 2.84 5.106z" fill="#FAFF00"/><path d="M252.892 83.33a5.759 5.759 0 01-.462 2.734 6.71 6.71 0 01-1.728 2.355 8.317 8.317 0 01-2.711 1.586 9.554 9.554 0 01-3.243.556c-2.332-.019-4.569-.776-6.255-2.12-1.686-1.342-2.697-3.17-2.826-5.11-.07-.927.09-1.855.468-2.729a6.708 6.708 0 011.73-2.348 8.311 8.311 0 012.707-1.582 9.561 9.561 0 013.239-.554c2.327.022 4.558.779 6.243 2.117 1.685 1.338 2.699 3.16 2.838 5.096z" fill="#02C15A"/><path d="M225.752 430.35h103.327l94.47-364.84H320.222l-94.47 364.84zm444.662 0h26.163l94.47-364.84h-26.162l-94.471 364.84zm-318.369 0h146.592l94.47-364.84H446.515l-94.47 364.84z" opacity=".6" fill="#fff"/><path d="M368.672 254.759h-.226c-16.675-1.82-28.167-20.879-28.63-21.648-.427-.779-.611-1.748-.514-2.704.097-.956.467-1.825 1.034-2.425.567-.599 1.285-.883 2.005-.791.72.092 1.385.553 1.856 1.285.132.225 9.953 16.378 23.555 18.683 4.381-5.846 8.137-21.281 7.717-25.949v-.134c-.087-1.503-.3-6.681.808-9.73.365-.784.935-1.359 1.599-1.616.664-.256 1.376-.175 1.998.228.623.402 1.111 1.098 1.371 1.953.261.855.275 1.808.039 2.676-.275.768-.406 3.533-.275 5.846.626 7.684-4.382 27.077-10.641 33.566-.488.495-1.084.762-1.696.76zM236.11 234.523c-5.76-.093-11.442-1.798-16.677-5.003-5.236-3.205-9.909-7.84-13.719-13.605-.43-.64-.681-1.458-.711-2.317-.03-.858.164-1.704.548-2.394 4.52-8.11 12.519-27.261 13.771-33.5-.594-1.504-1.492-2.757-2.591-3.616-.44-.273-.819-.695-1.099-1.224a4.554 4.554 0 01-.498-1.791l-.45-6.114c-.044-.963.194-1.912.663-2.647.47-.734 1.134-1.198 1.854-1.293.72-.095 1.44.186 2.008.783.568.598.941 1.466 1.039 2.422l.313 4.252c1.851 1.896 3.316 4.379 4.263 7.224.188.596.257 1.246.2 1.888-.576 6.623-8.631 25.807-13.589 35.504 11.574 15.392 25.407 13.989 26.014 13.914.73-.067 1.45.249 2.007.881.556.632.906 1.529.973 2.501.067.971-.154 1.939-.615 2.696-.46.757-1.125 1.244-1.851 1.355-.163.017-.808.084-1.853.084zm90.167 148.054h-7.512c-.431 0-.856-.132-1.242-.387a3.18 3.18 0 01-.985-1.084 4.439 4.439 0 01-.521-1.554 4.962 4.962 0 01.051-1.702c1.959-9.387 2.923-17.029 3.643-28.989a6903.228 6903.228 0 00-5.177-32.063c-.136-.956.013-1.944.415-2.754.401-.811 1.024-1.381 1.736-1.589.712-.208 1.456-.037 2.075.476.618.513 1.063 1.328 1.238 2.271 0 .151 2.579 15.752 5.265 32.64.057.351.074.711.05 1.069-.626 10.74-1.446 18.165-2.923 26.208h3.868c.718.045 1.396.458 1.892 1.152.497.695.774 1.618.774 2.577 0 .96-.277 1.882-.774 2.577-.496.694-1.174 1.107-1.892 1.152h.019zm-57.931 0h-4.232a2.21 2.21 0 01-1.159-.331 3.02 3.02 0 01-.951-.946 4.192 4.192 0 01-.57-1.387 4.888 4.888 0 01-.086-1.579c.72-6.848 4.381-19.318 8.325-31.854a7791.39 7791.39 0 002.547-30.902 4.71 4.71 0 01.311-1.425 3.73 3.73 0 01.701-1.151c.289-.317.623-.553.982-.695a2.13 2.13 0 011.108-.13c.372.056.732.21 1.058.455.326.245.612.575.842.97.229.395.396.847.492 1.33.095.483.118.987.065 1.481 0 .142-1.177 14.666-2.598 31.445a4.576 4.576 0 01-.2 1.019c-2.773 8.878-5.94 19.335-7.386 26.259h.751c.378-.024.756.055 1.11.231.355.177.679.448.953.796.274.349.492.768.641 1.232.149.465.226.965.226 1.47s-.077 1.005-.226 1.469a3.927 3.927 0 01-.641 1.232c-.274.349-.598.62-.953.796a2.163 2.163 0 01-1.11.232v-.017z" fill="#263238"/><path d="M270.781 127.768l-32.587 43.489c-1.64 48.199-1.508 98.828 0 151.32h107.762c-2.134-67.734-2.335-132.938 0-194.809h-75.175z" fill="#fff"/><path d="M345.956 323.312H238.194a.5.5 0 01-.39-.208.885.885 0 01-.173-.51c-1.559-54.513-1.559-105.46 0-151.396a.876.876 0 01.169-.492l32.586-43.489a.583.583 0 01.181-.161.447.447 0 01.214-.056h75.175c.076 0 .152.021.222.061.07.041.133.099.185.173a.782.782 0 01.119.254.95.95 0 01.031.297c-2.247 59.583-2.247 123.283 0 194.742a.99.99 0 01-.036.293.816.816 0 01-.12.25.578.578 0 01-.181.178.422.422 0 01-.22.064zm-107.23-1.495h106.648c-2.216-70.874-2.222-134.124 0-193.322h-74.362l-32.286 43.063c-1.533 45.634-1.533 96.18 0 150.259z" fill="#263238"/><path d="M326.633 301.873h-11.755a.373.373 0 01-.296-.164.664.664 0 01-.123-.396c0-.073.011-.145.032-.213a.598.598 0 01.091-.18.436.436 0 01.136-.119.329.329 0 01.16-.039h11.755a.324.324 0 01.16.039.44.44 0 01.137.119c.039.052.07.113.091.18a.723.723 0 010 .427.598.598 0 01-.091.182.43.43 0 01-.136.121.332.332 0 01-.161.043zm-16.625 0h-52.504a.375.375 0 01-.296-.164.664.664 0 01-.123-.396c0-.073.011-.145.032-.213a.598.598 0 01.091-.18.448.448 0 01.136-.119.329.329 0 01.16-.039h52.492a.326.326 0 01.16.039.436.436 0 01.136.119c.039.052.07.113.091.18.021.068.032.14.032.213a.667.667 0 01-.118.39.386.386 0 01-.289.17zm-32.924-83.745c-.125-3.642-1.671-6.515-3.462-6.431-1.79.083-3.129 3.098-3.017 6.74.113 3.641 1.672 6.514 3.462 6.422 1.79-.091 3.142-3.098 3.017-6.731zm37.788-1.144c-.125-3.633-1.671-6.507-3.461-6.423-1.791.083-3.13 3.099-3.018 6.74.113 3.641 1.678 6.514 3.462 6.423 1.784-.092 3.142-3.099 3.017-6.74zm-28.355 16.019c2.888-1.44 5.964-2.086 9.043-1.899 3.08.187 6.099 1.202 8.878 2.984.092.068.173.16.238.27.066.11.114.236.143.371a1.415 1.415 0 01-.075.813c-.106.245-.28.426-.485.502a.635.635 0 01-.61-.093c-.094-.067-9.014-6.481-19.661.835a.638.638 0 01-.613.069c-.203-.085-.374-.271-.476-.52a1.354 1.354 0 01-.053-.814c.032-.134.084-.258.152-.364a.883.883 0 01.245-.259 23.329 23.329 0 013.274-1.895zm-14.841-48.993c.277.01.549.114.788.301.366.289.632.759.74 1.308a2.788 2.788 0 01-.164 1.623c-1.245 2.963-3.008 5.48-5.138 7.34-2.131 1.859-4.566 3.006-7.099 3.343-.426.022-.841-.18-1.156-.563-.315-.383-.505-.916-.528-1.484a2.789 2.789 0 01.095-.822c.072-.263.182-.505.324-.711a1.74 1.74 0 01.503-.492c.19-.118.396-.184.606-.196.244 0 6.021-.485 9.614-8.578.141-.332.347-.608.596-.796.25-.188.532-.283.819-.273zm37.813-1.228c.261-.068.531-.049.786.056.255.105.486.292.672.546 5.008 6.681 10.729 5.337 10.967 5.278.414-.099.841.019 1.191.331.35.311.596.791.687 1.34.042.274.042.557.002.831-.04.275-.121.536-.237.769a1.948 1.948 0 01-.441.588c-.174.156-.37.263-.576.317-.313.075-7.599 1.929-13.902-6.473a2.362 2.362 0 01-.423-.988 2.809 2.809 0 01.02-1.137c.085-.37.243-.702.459-.96.215-.258.479-.433.764-.506l.031.008z" fill="#407BFF"/><path opacity=".2" d="M344.335 206.16l-4.576.568c-.791.098-1.583-.192-2.226-.816-.643-.624-1.093-1.54-1.266-2.575l-6.341-37.901c-.183-1.101-.04-2.253.4-3.216.44-.962 1.143-1.66 1.96-1.946l12.262-4.293-.213 50.179zm-70.556-31.045c-3.186-11.6-6.372-30.167-3.011-47.363l-32.586 43.488c9.22 4.134 23.904 5.897 35.597 3.875z" fill="#000"/><path d="M270.781 171.24c-3.574-14.081-2.116-33.224 0-43.488l-32.587 43.488c9.865 2.397 20.888 2.013 32.587 0z" fill="#fff"/><path d="M253.123 173.637a63.071 63.071 0 01-15.023-1.67.507.507 0 01-.271-.17.791.791 0 01-.165-.336.98.98 0 01-.008-.4.821.821 0 01.15-.347l32.587-43.488a.522.522 0 01.323-.216.442.442 0 01.355.095c.107.083.19.212.236.365a.971.971 0 01.018.482c-1.965 9.555-3.599 28.898 0 43.046a1.012 1.012 0 01-.056.635.659.659 0 01-.171.232.46.46 0 01-.23.11 104.65 104.65 0 01-17.745 1.662zm-13.771-2.89c8.663 1.913 18.722 1.871 30.671-.133-2.948-12.478-2.278-28.99-.3-40.424l-30.371 40.557z" fill="#263238"/><path d="M404.138 150.927l-.608.209.862 4.464.608-.209-.862-4.464z" fill="#407BFF"/><path d="M431.24 197v-10.4l.68 1.84L420.04 169h3.16l10.44 17.08h-1.68L442.4 169h2.96l-11.88 19.44.68-1.84V197h-2.92zm24.288.2c-2.027 0-3.854-.453-5.48-1.36-1.6-.933-2.867-2.2-3.8-3.8-.934-1.627-1.4-3.48-1.4-5.56 0-2.107.466-3.96 1.4-5.56.933-1.6 2.2-2.853 3.8-3.76 1.6-.907 3.426-1.36 5.48-1.36 2.08 0 3.92.453 5.52 1.36a9.729 9.729 0 013.8 3.76c.933 1.6 1.4 3.453 1.4 5.56 0 2.08-.467 3.933-1.4 5.56-.907 1.6-2.174 2.867-3.8 3.8-1.627.907-3.467 1.36-5.52 1.36zm0-2.52c1.52 0 2.866-.333 4.04-1a7.356 7.356 0 002.76-2.88c.693-1.253 1.04-2.693 1.04-4.32 0-1.653-.347-3.093-1.04-4.32-.667-1.227-1.587-2.173-2.76-2.84-1.174-.693-2.507-1.04-4-1.04-1.494 0-2.827.347-4 1.04-1.174.667-2.107 1.613-2.8 2.84-.694 1.227-1.04 2.667-1.04 4.32 0 1.627.346 3.067 1.04 4.32.693 1.227 1.626 2.187 2.8 2.88 1.173.667 2.493 1 3.96 1zm25.198 2.52c-1.787 0-3.347-.333-4.68-1-1.333-.667-2.373-1.667-3.12-3-.72-1.333-1.08-3-1.08-5V176h2.84v11.88c0 2.24.547 3.933 1.64 5.08 1.12 1.12 2.68 1.68 4.68 1.68 1.467 0 2.733-.293 3.8-.88a5.94 5.94 0 002.48-2.64c.587-1.147.88-2.52.88-4.12v-11h2.84v21h-2.72v-5.76l.44 1.04c-.667 1.547-1.707 2.76-3.12 3.64-1.387.853-3.013 1.28-4.88 1.28zm18.195-.2v-21h2.72v5.72l-.28-1c.587-1.6 1.573-2.813 2.96-3.64 1.387-.853 3.107-1.28 5.16-1.28v2.76h-.32a1.299 1.299 0 00-.32-.04c-2.213 0-3.947.68-5.2 2.04-1.253 1.333-1.88 3.24-1.88 5.72V197h-2.84zm33.163.2c-1.973 0-3.493-.533-4.56-1.6-1.066-1.067-1.6-2.573-1.6-4.52v-19.72h2.84v19.56c0 1.227.307 2.173.92 2.84.64.667 1.547 1 2.72 1 1.254 0 2.294-.36 3.12-1.08l1 2.04c-.56.507-1.24.88-2.04 1.12-.773.24-1.573.36-2.4.36zm-9.92-18.84V176h13v2.36h-13zm27.348 18.84c-2.026 0-3.853-.453-5.48-1.36a10.39 10.39 0 01-3.8-3.8c-.933-1.627-1.4-3.48-1.4-5.56 0-2.107.467-3.96 1.4-5.56.934-1.6 2.2-2.853 3.8-3.76 1.6-.907 3.427-1.36 5.48-1.36 2.08 0 3.92.453 5.52 1.36a9.716 9.716 0 013.8 3.76c.934 1.6 1.4 3.453 1.4 5.56 0 2.08-.466 3.933-1.4 5.56-.906 1.6-2.173 2.867-3.8 3.8-1.626.907-3.466 1.36-5.52 1.36zm0-2.52c1.52 0 2.867-.333 4.04-1a7.342 7.342 0 002.76-2.88c.694-1.253 1.04-2.693 1.04-4.32 0-1.653-.346-3.093-1.04-4.32-.666-1.227-1.586-2.173-2.76-2.84-1.173-.693-2.506-1.04-4-1.04-1.493 0-2.826.347-4 1.04-1.173.667-2.106 1.613-2.8 2.84-.693 1.227-1.04 2.667-1.04 4.32 0 1.627.347 3.067 1.04 4.32.694 1.227 1.627 2.187 2.8 2.88 1.174.667 2.494 1 3.96 1zm15.349-7.28v-2.48h10.48v2.48h-10.48zm25.584 9.8c-2 0-3.8-.453-5.4-1.36a9.885 9.885 0 01-3.72-3.76c-.907-1.627-1.36-3.493-1.36-5.6 0-2.133.453-4 1.36-5.6.907-1.6 2.147-2.84 3.72-3.72 1.6-.907 3.4-1.36 5.4-1.36 1.84 0 3.48.413 4.92 1.24 1.467.827 2.627 2.04 3.48 3.64.88 1.573 1.32 3.507 1.32 5.8 0 2.267-.427 4.2-1.28 5.8-.853 1.6-2.013 2.827-3.48 3.68-1.44.827-3.093 1.24-4.96 1.24zm.2-2.52c1.493 0 2.827-.333 4-1a7.27 7.27 0 002.8-2.88c.693-1.253 1.04-2.693 1.04-4.32 0-1.653-.347-3.093-1.04-4.32a7.006 7.006 0 00-2.8-2.84c-1.173-.693-2.507-1.04-4-1.04-1.467 0-2.787.347-3.96 1.04-1.173.667-2.107 1.613-2.8 2.84-.693 1.227-1.04 2.667-1.04 4.32 0 1.627.347 3.067 1.04 4.32.693 1.227 1.627 2.187 2.8 2.88 1.173.667 2.493 1 3.96 1zm7.92 2.32v-6.32l.28-4.24-.4-4.24v-14.88h2.84V197h-2.72zm19.189.2c-2.026 0-3.853-.453-5.48-1.36a10.39 10.39 0 01-3.8-3.8c-.933-1.627-1.4-3.48-1.4-5.56 0-2.107.467-3.96 1.4-5.56.934-1.6 2.2-2.853 3.8-3.76 1.6-.907 3.427-1.36 5.48-1.36 2.08 0 3.92.453 5.52 1.36a9.716 9.716 0 013.8 3.76c.934 1.6 1.4 3.453 1.4 5.56 0 2.08-.466 3.933-1.4 5.56-.906 1.6-2.173 2.867-3.8 3.8-1.626.907-3.466 1.36-5.52 1.36zm0-2.52c1.52 0 2.867-.333 4.04-1a7.342 7.342 0 002.76-2.88c.694-1.253 1.04-2.693 1.04-4.32 0-1.653-.346-3.093-1.04-4.32-.666-1.227-1.586-2.173-2.76-2.84-1.173-.693-2.506-1.04-4-1.04-1.493 0-2.826.347-4 1.04-1.173.667-2.106 1.613-2.8 2.84-.693 1.227-1.04 2.667-1.04 4.32 0 1.627.347 3.067 1.04 4.32.694 1.227 1.627 2.187 2.8 2.88 1.174.667 2.494 1 3.96 1zm26.987 2.32v-29.68h2.84V197h-2.84zm10.742 0v-21h2.84v21h-2.84zm1.44-25.64c-.586 0-1.08-.2-1.48-.6-.4-.4-.6-.88-.6-1.44 0-.56.2-1.027.6-1.4.4-.4.894-.6 1.48-.6.587 0 1.08.187 1.48.56.4.373.6.84.6 1.4 0 .587-.2 1.08-.6 1.48-.373.4-.866.6-1.48.6zm14.943 25.84c-1.734 0-3.374-.24-4.92-.72-1.547-.507-2.76-1.133-3.64-1.88l1.28-2.24c.853.64 1.946 1.2 3.28 1.68 1.333.453 2.733.68 4.2.68 2 0 3.44-.307 4.32-.92.88-.64 1.32-1.48 1.32-2.52 0-.773-.254-1.373-.76-1.8-.48-.453-1.12-.787-1.92-1-.8-.24-1.694-.44-2.68-.6a57.892 57.892 0 01-2.96-.56c-.96-.213-1.84-.52-2.64-.92a5.55 5.55 0 01-1.96-1.72c-.48-.72-.72-1.68-.72-2.88 0-1.147.32-2.173.96-3.08.64-.907 1.573-1.613 2.8-2.12 1.253-.533 2.773-.8 4.56-.8 1.36 0 2.72.187 4.08.56 1.36.347 2.48.813 3.36 1.4l-1.24 2.28a9.247 9.247 0 00-3-1.36 12.04 12.04 0 00-3.2-.44c-1.894 0-3.294.333-4.2 1-.88.64-1.32 1.467-1.32 2.48 0 .8.24 1.427.72 1.88.506.453 1.16.813 1.96 1.08.826.24 1.72.44 2.68.6.986.16 1.96.36 2.92.6.986.213 1.88.52 2.68.92a4.55 4.55 0 011.96 1.64c.506.693.76 1.613.76 2.76 0 1.227-.347 2.293-1.04 3.2-.667.88-1.654 1.573-2.96 2.08-1.28.48-2.84.72-4.68.72zm20.531 0c-1.973 0-3.493-.533-4.56-1.6-1.067-1.067-1.6-2.573-1.6-4.52v-19.72h2.84v19.56c0 1.227.307 2.173.92 2.84.64.667 1.547 1 2.72 1 1.253 0 2.293-.36 3.12-1.08l1 2.04c-.56.507-1.24.88-2.04 1.12-.773.24-1.573.36-2.4.36zm-9.92-18.84V176h13v2.36h-13zM712.476 197v-21h2.84v21h-2.84zm1.44-25.64c-.587 0-1.08-.2-1.48-.6-.4-.4-.6-.88-.6-1.44 0-.56.2-1.027.6-1.4.4-.4.893-.6 1.48-.6.586 0 1.08.187 1.48.56.4.373.6.84.6 1.4 0 .587-.2 1.08-.6 1.48-.374.4-.867.6-1.48.6zm14.942 25.84c-1.734 0-3.374-.24-4.92-.72-1.547-.507-2.76-1.133-3.64-1.88l1.28-2.24c.853.64 1.946 1.2 3.28 1.68 1.333.453 2.733.68 4.2.68 2 0 3.44-.307 4.32-.92.88-.64 1.32-1.48 1.32-2.52 0-.773-.254-1.373-.76-1.8-.48-.453-1.12-.787-1.92-1-.8-.24-1.694-.44-2.68-.6a57.892 57.892 0 01-2.96-.56c-.96-.213-1.84-.52-2.64-.92a5.55 5.55 0 01-1.96-1.72c-.48-.72-.72-1.68-.72-2.88 0-1.147.32-2.173.96-3.08.64-.907 1.573-1.613 2.8-2.12 1.253-.533 2.773-.8 4.56-.8 1.36 0 2.72.187 4.08.56 1.36.347 2.48.813 3.36 1.4l-1.24 2.28a9.247 9.247 0 00-3-1.36 12.04 12.04 0 00-3.2-.44c-1.894 0-3.294.333-4.2 1-.88.64-1.32 1.467-1.32 2.48 0 .8.24 1.427.72 1.88.506.453 1.16.813 1.96 1.08.826.24 1.72.44 2.68.6.986.16 1.96.36 2.92.6.986.213 1.88.52 2.68.92a4.55 4.55 0 011.96 1.64c.506.693.76 1.613.76 2.76 0 1.227-.347 2.293-1.04 3.2-.667.88-1.654 1.573-2.96 2.08-1.28.48-2.84.72-4.68.72zm30 0c-1.734 0-3.374-.24-4.92-.72-1.547-.507-2.76-1.133-3.64-1.88l1.28-2.24c.853.64 1.946 1.2 3.28 1.68 1.333.453 2.733.68 4.2.68 2 0 3.44-.307 4.32-.92.88-.64 1.32-1.48 1.32-2.52 0-.773-.254-1.373-.76-1.8-.48-.453-1.12-.787-1.92-1-.8-.24-1.694-.44-2.68-.6a57.892 57.892 0 01-2.96-.56c-.96-.213-1.84-.52-2.64-.92a5.55 5.55 0 01-1.96-1.72c-.48-.72-.72-1.68-.72-2.88 0-1.147.32-2.173.96-3.08.64-.907 1.573-1.613 2.8-2.12 1.253-.533 2.773-.8 4.56-.8 1.36 0 2.72.187 4.08.56 1.36.347 2.48.813 3.36 1.4l-1.24 2.28a9.247 9.247 0 00-3-1.36 12.04 12.04 0 00-3.2-.44c-1.894 0-3.294.333-4.2 1-.88.64-1.32 1.467-1.32 2.48 0 .8.24 1.427.72 1.88.506.453 1.16.813 1.96 1.08.826.24 1.72.44 2.68.6.986.16 1.96.36 2.92.6.986.213 1.88.52 2.68.92a4.55 4.55 0 011.96 1.64c.506.693.76 1.613.76 2.76 0 1.227-.347 2.293-1.04 3.2-.667.88-1.654 1.573-2.96 2.08-1.28.48-2.84.72-4.68.72zm20.531 0c-1.973 0-3.493-.533-4.56-1.6-1.067-1.067-1.6-2.573-1.6-4.52v-19.72h2.84v19.56c0 1.227.307 2.173.92 2.84.64.667 1.547 1 2.72 1 1.253 0 2.293-.36 3.12-1.08l1 2.04c-.56.507-1.24.88-2.04 1.12-.773.24-1.573.36-2.4.36zm-9.92-18.84V176h13v2.36h-13zm19.53 18.64v-21h2.84v21h-2.84zm1.44-25.64c-.587 0-1.08-.2-1.48-.6-.4-.4-.6-.88-.6-1.44 0-.56.2-1.027.6-1.4.4-.4.893-.6 1.48-.6s1.08.187 1.48.56c.4.373.6.84.6 1.4 0 .587-.2 1.08-.6 1.48-.373.4-.867.6-1.48.6zm9.302 25.64v-29.68h2.84V197h-2.84zm10.742 0v-29.68h2.84V197h-2.84zM432.88 246.2c-2.187 0-4.107-.453-5.76-1.36-1.653-.933-2.947-2.2-3.88-3.8-.933-1.627-1.4-3.48-1.4-5.56 0-2.08.44-3.92 1.32-5.52.907-1.6 2.133-2.853 3.68-3.76 1.573-.933 3.333-1.4 5.28-1.4 1.973 0 3.72.453 5.24 1.36 1.547.88 2.76 2.133 3.64 3.76.88 1.6 1.32 3.453 1.32 5.56 0 .133-.013.28-.04.44v.44H424v-2.12h16.76l-1.12.84c0-1.52-.333-2.867-1-4.04-.64-1.2-1.52-2.133-2.64-2.8-1.12-.667-2.413-1-3.88-1-1.44 0-2.733.333-3.88 1a6.952 6.952 0 00-2.68 2.8c-.64 1.2-.96 2.573-.96 4.12v.44c0 1.6.347 3.013 1.04 4.24a7.77 7.77 0 002.96 2.84c1.28.667 2.733 1 4.36 1 1.28 0 2.467-.227 3.56-.68a7.406 7.406 0 002.88-2.08l1.6 1.84c-.933 1.12-2.107 1.973-3.52 2.56-1.387.587-2.92.88-4.6.88zm41.461-21.4c1.706 0 3.186.333 4.44 1 1.28.64 2.266 1.627 2.96 2.96.72 1.333 1.08 3.013 1.08 5.04V246h-2.84v-11.92c0-2.213-.534-3.88-1.6-5-1.04-1.147-2.52-1.72-4.44-1.72-1.44 0-2.694.307-3.76.92-1.04.587-1.854 1.453-2.44 2.6-.56 1.12-.84 2.48-.84 4.08V246h-2.84v-11.92c0-2.213-.534-3.88-1.6-5-1.067-1.147-2.56-1.72-4.48-1.72-1.414 0-2.654.307-3.72.92-1.067.587-1.894 1.453-2.48 2.6-.56 1.12-.84 2.48-.84 4.08V246h-2.84v-21h2.72v5.68l-.44-1a7.421 7.421 0 013.08-3.56c1.44-.88 3.133-1.32 5.08-1.32 2.053 0 3.8.52 5.24 1.56 1.44 1.013 2.373 2.547 2.8 4.6l-1.12-.44c.613-1.707 1.693-3.08 3.24-4.12 1.573-1.067 3.453-1.6 5.64-1.6zm27.022 21.4c-1.814 0-3.454-.413-4.92-1.24-1.467-.853-2.64-2.067-3.52-3.64-.854-1.6-1.28-3.547-1.28-5.84 0-2.293.426-4.227 1.28-5.8.853-1.6 2.013-2.813 3.48-3.64 1.466-.827 3.12-1.24 4.96-1.24 2 0 3.786.453 5.36 1.36 1.6.88 2.853 2.133 3.76 3.76.906 1.6 1.36 3.453 1.36 5.56 0 2.133-.454 4-1.36 5.6a9.8 9.8 0 01-3.76 3.76c-1.574.907-3.36 1.36-5.36 1.36zm-10.84 7.56V225h2.72v6.32l-.28 4.2.4 4.24v14h-2.84zm10.64-10.08c1.493 0 2.826-.333 4-1 1.173-.693 2.106-1.653 2.8-2.88.693-1.253 1.04-2.693 1.04-4.32 0-1.627-.347-3.053-1.04-4.28-.694-1.227-1.627-2.187-2.8-2.88-1.174-.693-2.507-1.04-4-1.04-1.494 0-2.84.347-4.041 1.04-1.173.693-2.106 1.653-2.799 2.88-.667 1.227-1 2.653-1 4.28 0 1.627.333 3.067 1 4.32.693 1.227 1.626 2.187 2.799 2.88 1.201.667 2.547 1 4.041 1zm23.109 2.52c-1.973 0-3.493-.533-4.56-1.6-1.067-1.067-1.6-2.573-1.6-4.52v-19.72h2.84v19.56c0 1.227.307 2.173.92 2.84.64.667 1.547 1 2.72 1 1.253 0 2.293-.36 3.12-1.08l1 2.04c-.56.507-1.24.88-2.04 1.12-.773.24-1.573.36-2.4.36zm-9.92-18.84V225h13v2.36h-13zm19.299 26.6c-.986 0-1.933-.16-2.84-.48-.88-.32-1.64-.8-2.28-1.44l1.32-2.12a5.942 5.942 0 001.72 1.16c.64.293 1.347.44 2.12.44.934 0 1.734-.267 2.4-.8.694-.507 1.347-1.413 1.96-2.72l1.36-3.08.32-.44 8.64-19.48h2.8l-10.52 23.52c-.586 1.36-1.24 2.44-1.96 3.24-.693.8-1.453 1.36-2.28 1.68-.826.347-1.746.52-2.76.52zm5.6-7.36l-9.68-21.6h2.96l8.56 19.28-1.84 2.32zm14.833-.4a2.074 2.074 0 01-1.52-.64c-.4-.427-.6-.947-.6-1.56 0-.64.2-1.16.6-1.56.426-.4.933-.6 1.52-.6.586 0 1.08.2 1.48.6.426.4.64.92.64 1.56 0 .613-.214 1.133-.64 1.56-.4.427-.894.64-1.48.64zm14.785-.2l12.8-28h2.92l12.8 28h-3.12l-11.76-26.28h1.2L571.949 246h-3.08zm5.04-7.48l.88-2.4h16.28l.88 2.4h-18.04zm35.677 7.68c-2 0-3.8-.453-5.4-1.36a9.871 9.871 0 01-3.72-3.76c-.907-1.627-1.36-3.493-1.36-5.6 0-2.133.453-4 1.36-5.6.906-1.6 2.146-2.84 3.72-3.72 1.6-.907 3.4-1.36 5.4-1.36 1.84 0 3.48.413 4.92 1.24 1.466.827 2.626 2.04 3.48 3.64.88 1.573 1.32 3.507 1.32 5.8 0 2.267-.427 4.2-1.28 5.8-.854 1.6-2.014 2.827-3.48 3.68-1.44.827-3.094 1.24-4.96 1.24zm.2-2.52c1.493 0 2.826-.333 4-1a7.27 7.27 0 002.8-2.88c.693-1.253 1.04-2.693 1.04-4.32 0-1.653-.347-3.093-1.04-4.32a7.006 7.006 0 00-2.8-2.84c-1.174-.693-2.507-1.04-4-1.04-1.467 0-2.787.347-3.96 1.04-1.174.667-2.107 1.613-2.8 2.84-.694 1.227-1.04 2.667-1.04 4.32 0 1.627.346 3.067 1.04 4.32.693 1.227 1.626 2.187 2.8 2.88 1.173.667 2.493 1 3.96 1zm7.92 2.32v-6.32l.28-4.24-.4-4.24v-14.88h2.84V246h-2.72zm18.989.2c-2 0-3.8-.453-5.4-1.36a9.885 9.885 0 01-3.72-3.76c-.907-1.627-1.36-3.493-1.36-5.6 0-2.133.453-4 1.36-5.6.907-1.6 2.147-2.84 3.72-3.72 1.6-.907 3.4-1.36 5.4-1.36 1.84 0 3.48.413 4.92 1.24 1.467.827 2.627 2.04 3.48 3.64.88 1.573 1.32 3.507 1.32 5.8 0 2.267-.427 4.2-1.28 5.8-.853 1.6-2.013 2.827-3.48 3.68-1.44.827-3.093 1.24-4.96 1.24zm.2-2.52c1.493 0 2.827-.333 4-1a7.27 7.27 0 002.8-2.88c.693-1.253 1.04-2.693 1.04-4.32 0-1.653-.347-3.093-1.04-4.32a7.006 7.006 0 00-2.8-2.84c-1.173-.693-2.507-1.04-4-1.04-1.467 0-2.787.347-3.96 1.04-1.173.667-2.107 1.613-2.8 2.84-.693 1.227-1.04 2.667-1.04 4.32 0 1.627.347 3.067 1.04 4.32.693 1.227 1.627 2.187 2.8 2.88 1.173.667 2.493 1 3.96 1zm7.92 2.32v-6.32l.28-4.24-.4-4.24v-14.88h2.84V246h-2.72zm21.258 7.96a8.47 8.47 0 01-2.84-.48c-.88-.32-1.64-.8-2.28-1.44l1.32-2.12a5.929 5.929 0 001.72 1.16c.64.293 1.347.44 2.12.44.933 0 1.733-.267 2.4-.8.693-.507 1.347-1.413 1.96-2.72l1.36-3.08.32-.44 8.64-19.48h2.8l-10.52 23.52c-.587 1.36-1.24 2.44-1.96 3.24-.693.8-1.453 1.36-2.28 1.68-.827.347-1.747.52-2.76.52zm5.6-7.36l-9.68-21.6h2.96l8.56 19.28-1.84 2.32zm23.894-.4c-2.027 0-3.853-.453-5.48-1.36-1.6-.933-2.867-2.2-3.8-3.8-.933-1.627-1.4-3.48-1.4-5.56 0-2.107.467-3.96 1.4-5.56.933-1.6 2.2-2.853 3.8-3.76 1.6-.907 3.427-1.36 5.48-1.36 2.08 0 3.92.453 5.52 1.36a9.722 9.722 0 013.8 3.76c.933 1.6 1.4 3.453 1.4 5.56 0 2.08-.467 3.933-1.4 5.56-.907 1.6-2.173 2.867-3.8 3.8-1.627.907-3.467 1.36-5.52 1.36zm0-2.52c1.52 0 2.867-.333 4.04-1a7.356 7.356 0 002.76-2.88c.693-1.253 1.04-2.693 1.04-4.32 0-1.653-.347-3.093-1.04-4.32-.667-1.227-1.587-2.173-2.76-2.84-1.173-.693-2.507-1.04-4-1.04-1.493 0-2.827.347-4 1.04-1.173.667-2.107 1.613-2.8 2.84-.693 1.227-1.04 2.667-1.04 4.32 0 1.627.347 3.067 1.04 4.32.693 1.227 1.627 2.187 2.8 2.88 1.173.667 2.493 1 3.96 1zm25.198 2.52c-1.787 0-3.347-.333-4.68-1-1.333-.667-2.373-1.667-3.12-3-.72-1.333-1.08-3-1.08-5V225h2.84v11.88c0 2.24.547 3.933 1.64 5.08 1.12 1.12 2.68 1.68 4.68 1.68 1.467 0 2.733-.293 3.8-.88a5.94 5.94 0 002.48-2.64c.587-1.147.88-2.52.88-4.12v-11h2.84v21h-2.72v-5.76l.44 1.04c-.667 1.547-1.707 2.76-3.12 3.64-1.387.853-3.013 1.28-4.88 1.28zm18.195-.2v-21h2.72v5.72l-.28-1c.587-1.6 1.573-2.813 2.96-3.64 1.387-.853 3.107-1.28 5.16-1.28v2.76h-.32a1.299 1.299 0 00-.32-.04c-2.213 0-3.947.68-5.2 2.04-1.253 1.333-1.88 3.24-1.88 5.72V246h-2.84zm27.003 0v-23.64c0-1.867.547-3.373 1.64-4.52 1.094-1.147 2.667-1.72 4.72-1.72.8 0 1.574.107 2.32.32.747.213 1.374.547 1.88 1l-.96 2.12c-.4-.347-.866-.6-1.4-.76a5.158 5.158 0 00-1.72-.28c-1.2 0-2.12.333-2.76 1-.64.667-.96 1.653-.96 2.96v3.2l.08 1.32v19h-2.84zm-3.76-18.64V225h13v2.36h-13zm16.84 18.64v-21h2.84v21h-2.84zm1.44-25.64c-.586 0-1.08-.2-1.48-.6-.4-.4-.6-.88-.6-1.44 0-.56.2-1.027.6-1.4.4-.4.894-.6 1.48-.6.587 0 1.08.187 1.48.56.4.373.6.84.6 1.4 0 .587-.2 1.08-.6 1.48-.373.4-.866.6-1.48.6zm9.375 25.64v-21h2.72v5.72l-.28-1c.587-1.6 1.574-2.813 2.96-3.64 1.387-.853 3.107-1.28 5.16-1.28v2.76h-.32a1.293 1.293 0 00-.32-.04c-2.213 0-3.946.68-5.2 2.04-1.253 1.333-1.88 3.24-1.88 5.72V246h-2.84zm21.617.2c-1.733 0-3.373-.24-4.92-.72-1.547-.507-2.76-1.133-3.64-1.88l1.28-2.24c.853.64 1.947 1.2 3.28 1.68 1.333.453 2.733.68 4.2.68 2 0 3.44-.307 4.32-.92.88-.64 1.32-1.48 1.32-2.52 0-.773-.253-1.373-.76-1.8-.48-.453-1.12-.787-1.92-1-.8-.24-1.693-.44-2.68-.6a58.099 58.099 0 01-2.96-.56c-.96-.213-1.84-.52-2.64-.92a5.56 5.56 0 01-1.96-1.72c-.48-.72-.72-1.68-.72-2.88 0-1.147.32-2.173.96-3.08.64-.907 1.573-1.613 2.8-2.12 1.253-.533 2.773-.8 4.56-.8 1.36 0 2.72.187 4.08.56 1.36.347 2.48.813 3.36 1.4l-1.24 2.28a9.228 9.228 0 00-3-1.36 12.035 12.035 0 00-3.2-.44c-1.893 0-3.293.333-4.2 1-.88.64-1.32 1.467-1.32 2.48 0 .8.24 1.427.72 1.88.507.453 1.16.813 1.96 1.08.827.24 1.72.44 2.68.6.987.16 1.96.36 2.92.6.987.213 1.88.52 2.68.92.827.373 1.48.92 1.96 1.64.507.693.76 1.613.76 2.76 0 1.227-.347 2.293-1.04 3.2-.667.88-1.653 1.573-2.96 2.08-1.28.48-2.84.72-4.68.72zm20.531 0c-1.973 0-3.493-.533-4.56-1.6-1.066-1.067-1.6-2.573-1.6-4.52v-19.72h2.84v19.56c0 1.227.307 2.173.92 2.84.64.667 1.547 1 2.72 1 1.254 0 2.294-.36 3.12-1.08l1 2.04c-.56.507-1.24.88-2.04 1.12-.773.24-1.573.36-2.4.36zm-9.92-18.84V225h13v2.36h-13zM430.6 295.2c-1.973 0-3.493-.533-4.56-1.6-1.067-1.067-1.6-2.573-1.6-4.52v-19.72h2.84v19.56c0 1.227.307 2.173.92 2.84.64.667 1.547 1 2.72 1 1.253 0 2.293-.36 3.12-1.08l1 2.04c-.56.507-1.24.88-2.04 1.12-.773.24-1.573.36-2.4.36zm-9.92-18.84V274h13v2.36h-13zM453.37 295v-4.64l-.12-.76v-7.76c0-1.787-.507-3.16-1.52-4.12-.987-.96-2.467-1.44-4.44-1.44-1.36 0-2.653.227-3.88.68-1.227.453-2.267 1.053-3.12 1.8l-1.28-2.12c1.067-.907 2.347-1.6 3.84-2.08a14.581 14.581 0 014.72-.76c2.72 0 4.813.68 6.28 2.04 1.493 1.333 2.24 3.373 2.24 6.12V295h-2.72zm-7.24.2c-1.573 0-2.947-.253-4.12-.76-1.147-.533-2.027-1.253-2.64-2.16-.613-.933-.92-2-.92-3.2 0-1.093.253-2.08.76-2.96.533-.907 1.387-1.627 2.56-2.16 1.2-.56 2.8-.84 4.8-.84h7.24v2.12h-7.16c-2.027 0-3.44.36-4.24 1.08-.773.72-1.16 1.613-1.16 2.68 0 1.2.467 2.16 1.4 2.88.933.72 2.24 1.08 3.92 1.08 1.6 0 2.973-.36 4.12-1.08 1.173-.747 2.027-1.813 2.56-3.2l.64 1.96c-.533 1.387-1.467 2.493-2.8 3.32-1.307.827-2.96 1.24-4.96 1.24zm23.314 0c-1.734 0-3.374-.24-4.92-.72-1.547-.507-2.76-1.133-3.64-1.88l1.28-2.24c.853.64 1.946 1.2 3.28 1.68 1.333.453 2.733.68 4.2.68 2 0 3.44-.307 4.32-.92.88-.64 1.32-1.48 1.32-2.52 0-.773-.254-1.373-.76-1.8-.48-.453-1.12-.787-1.92-1-.8-.24-1.694-.44-2.68-.6a57.892 57.892 0 01-2.96-.56c-.96-.213-1.84-.52-2.64-.92a5.55 5.55 0 01-1.96-1.72c-.48-.72-.72-1.68-.72-2.88 0-1.147.32-2.173.96-3.08.64-.907 1.573-1.613 2.8-2.12 1.253-.533 2.773-.8 4.56-.8 1.36 0 2.72.187 4.08.56 1.36.347 2.48.813 3.36 1.4l-1.24 2.28a9.247 9.247 0 00-3-1.36 12.04 12.04 0 00-3.2-.44c-1.894 0-3.294.333-4.2 1-.88.64-1.32 1.467-1.32 2.48 0 .8.24 1.427.72 1.88.506.453 1.16.813 1.96 1.08.826.24 1.72.44 2.68.6.986.16 1.96.36 2.92.6.986.213 1.88.52 2.68.92a4.55 4.55 0 011.96 1.64c.506.693.76 1.613.76 2.76 0 1.227-.347 2.293-1.04 3.2-.667.88-1.654 1.573-2.96 2.08-1.28.48-2.84.72-4.68.72zm16.131-5.64l.08-3.64 13.08-11.92h3.48l-9.24 8.84-1.6 1.36-5.8 5.36zm-2.24 5.44v-29.68h2.84V295h-2.84zm16.28 0l-8.76-10.92 1.84-2.2 10.4 13.12h-3.48zm8.414.2a2.075 2.075 0 01-1.52-.64c-.4-.427-.6-.947-.6-1.56 0-.64.2-1.16.6-1.56.427-.4.933-.6 1.52-.6s1.08.2 1.48.6c.427.4.64.92.64 1.56 0 .613-.213 1.133-.64 1.56-.4.427-.893.64-1.48.64z" fill="#FFAD0F"/></svg>